<svg id="图层_1" data-name="图层 1" xmlns="http://www.w3.org/2000/svg" viewBox="0 0 4112.7 1022"><defs><style>.cls-1{fill:#fff;}.cls-2{fill:#ef8629;}</style></defs><title>yun</title><g id="_编组_" data-name="&lt;编组&gt;"><path id="_复合路径_" data-name="&lt;复合路径&gt;" class="cls-1" d="M2087.8,500H1856.2a77,77,0,0,1-44.2-13.7c-13.4-9.2-24-20.4-31.6-33.8s-11.5-26-11.5-38.1V296.7c0-12.2,4.8-24.3,14.4-36.5a121.5,121.5,0,0,1,34.4-29.9c13.2-7.8,24.6-11.7,34-11.7h230V283H1877a28.2,28.2,0,0,0-14.4,3.8,33.9,33.9,0,0,0-11.2,10.1,23,23,0,0,0-4.4,13.3v16.5h233.1v63.6H1848.6v22.6c0,5.5,3.2,10.3,9.7,14.5s12.7,6.3,18.7,6.3h210.8Z"/><path id="_复合路径_2" data-name="&lt;复合路径&gt;" class="cls-1" d="M2517.3,438.6c0,8.1-2.5,17.7-7.5,28.7s-13.3,20.8-24.6,29.1-25.6,12.4-43,12.4-31.2-2.4-39.9-7.3-17.8-14-27.6-27.2L2238.1,309.5c-4.3-5.8-7.8-9.5-10.3-11.1a16.8,16.8,0,0,0-9.5-2.5,13.2,13.2,0,0,0-7.7,2.9,9.2,9.2,0,0,0-3.9,7.9V500H2127V275.7c0-3.9,1.3-9.3,3.8-16a80,80,0,0,1,12.7-21,73.1,73.1,0,0,1,23.4-18.4c9.8-5.1,21.5-7.6,35.3-7.6,17.4,0,31,2.9,40.9,8.7s17.8,12.2,23.8,19l137.6,161.9c4.3,5.9,8,9.6,11,11.3a22.1,22.1,0,0,0,10.6,2.4q7.1,0,8.7-4.2c1.1-2.8,1.7-6.8,1.7-11.9V218.6h80.8Z"/><path id="_复合路径_3" data-name="&lt;复合路径&gt;" class="cls-1" d="M2886,500H2654.5a77.3,77.3,0,0,1-44.3-13.7,102.8,102.8,0,0,1-31.6-33.8q-11.4-20-11.4-38.1V296.7c0-12.2,4.8-24.3,14.4-36.5a121.1,121.1,0,0,1,34.3-29.9c13.3-7.8,24.6-11.7,34.1-11.7h229.9V283H2675.3a28.2,28.2,0,0,0-14.4,3.8,32,32,0,0,0-11.2,10.1,22.3,22.3,0,0,0-4.4,13.3v16.5h233.1v63.6H2646.8v22.6c0,5.5,3.3,10.3,9.7,14.5s12.8,6.3,18.8,6.3H2886Z"/><path id="_复合路径_4" data-name="&lt;复合路径&gt;" class="cls-1" d="M3284.2,456.6c0,11.8-3.5,22-10.3,30.5s-16.5,12.9-29,12.9H2919.4V430.9h261c4.6,0,9.4-1.6,14.5-5s7.6-8.4,7.6-15.2a18.2,18.2,0,0,0-3.2-10.4,21.3,21.3,0,0,0-9.7-7.8,33,33,0,0,0-14.1-3H2978a46,46,0,0,1-25.2-7.1,55.4,55.4,0,0,1-17-16.7q-6-9.6-6-15.6V258.8c0-7.8,4.3-16.5,13-26s20-14.2,33.7-14.2h292.3v66.7H3027.5c-5,0-8.9,2.1-12,6.3a22.3,22.3,0,0,0-4.5,13.1c0,4.2,2.1,8.7,6.2,13.4s10,7.1,17.6,7.1h198c17.5,0,30.4,4.5,38.8,13.5s12.6,20.9,12.6,35.5Z"/><path id="_复合路径_5" data-name="&lt;复合路径&gt;" class="cls-1" d="M3675.7,323.2a62,62,0,0,1-10.4,34.4,75.9,75.9,0,0,1-27.2,25.3c-11.2,6.3-22.6,9.4-34.3,9.4H3405.6c-14.1,0-26.6-3.1-37.6-9.3a89.4,89.4,0,0,1-27-22.4,112.5,112.5,0,0,1-15.9-26.3c-3.6-8.7-5.4-15.5-5.4-20.3l.4-95.8H3398v67.5c0,5,1.7,10.7,5.2,17.1a56.1,56.1,0,0,0,13.7,16.6,29,29,0,0,0,18.6,6.9H3556a37.2,37.2,0,0,0,21.4-6.4,47.9,47.9,0,0,0,14.8-15.7c3.4-6.2,5.2-11.6,5.2-16.3l.4-69.7h77.9ZM3567.5,500H3429.4V368.3h138.1Z"/><path id="_复合路径_6" data-name="&lt;复合路径&gt;" class="cls-1" d="M4071.1,456.6c0,11.8-3.5,22-10.3,30.5s-16.6,12.9-29,12.9H3706.3V430.9h261c4.5,0,9.4-1.6,14.5-5s7.6-8.4,7.6-15.2a18.2,18.2,0,0,0-3.2-10.4,21.9,21.9,0,0,0-9.7-7.8,33,33,0,0,0-14.1-3H3764.9a46,46,0,0,1-25.2-7.1,55.8,55.8,0,0,1-17.1-16.7c-3.9-6.4-5.9-11.6-5.9-15.6V258.8c0-7.8,4.3-16.5,13-26s19.9-14.2,33.7-14.2h292.3v66.7H3814.4a14,14,0,0,0-12,6.3,22.3,22.3,0,0,0-4.5,13.1c0,4.2,2.1,8.7,6.2,13.4s10,7.1,17.6,7.1h197.9c17.6,0,30.5,4.5,38.9,13.5s12.6,20.9,12.6,35.5Z"/></g><g id="_编组_2" data-name="&lt;编组&gt;"><g id="_编组_3" data-name="&lt;编组&gt;"><path id="_路径_" data-name="&lt;路径&gt;" class="cls-1" d="M84.5,758.4c-.5-.8-1-1.6-1.4-2.4C83.5,756.8,84,757.6,84.5,758.4Z"/></g><g id="_编组_4" data-name="&lt;编组&gt;"><path id="_路径_2" data-name="&lt;路径&gt;" class="cls-1" d="M88.8,765.6l-1.4-2.2Z"/></g><g id="_编组_5" data-name="&lt;编组&gt;"><path id="_路径_3" data-name="&lt;路径&gt;" class="cls-1" d="M61.4,710.6c-.8-2.3-1.7-4.6-2.6-6.9C59.7,706,60.6,708.3,61.4,710.6Z"/></g><g id="_编组_6" data-name="&lt;编组&gt;"><path id="_路径_4" data-name="&lt;路径&gt;" class="cls-1" d="M82.4,754.7l-1.5-2.6Z"/></g><g id="_编组_7" data-name="&lt;编组&gt;"><path id="_路径_5" data-name="&lt;路径&gt;" class="cls-1" d="M64.4,717.8l-2.7-6.5Z"/></g><g id="_编组_8" data-name="&lt;编组&gt;"><path id="_路径_6" data-name="&lt;路径&gt;" class="cls-1" d="M74.5,739.9c-1.1-2.2-2.1-4.3-3.2-6.4C72.4,735.6,73.4,737.7,74.5,739.9Z"/></g><g id="_编组_9" data-name="&lt;编组&gt;"><path id="_路径_7" data-name="&lt;路径&gt;" class="cls-1" d="M67.5,725.1l-2.7-6.3Z"/></g><g id="_编组_10" data-name="&lt;编组&gt;"><path id="_路径_8" data-name="&lt;路径&gt;" class="cls-1" d="M91,769.2l-1.2-2Z"/></g><g id="_编组_11" data-name="&lt;编组&gt;"><path id="_路径_9" data-name="&lt;路径&gt;" class="cls-1" d="M70.9,732.5c-1-2.1-2-4.2-2.9-6.3C68.9,728.3,69.9,730.4,70.9,732.5Z"/></g><g id="_编组_12" data-name="&lt;编组&gt;"><path id="_路径_10" data-name="&lt;路径&gt;" class="cls-1" d="M86.6,762l-1.5-2.5Z"/></g><g id="_编组_13" data-name="&lt;编组&gt;"><path id="_路径_11" data-name="&lt;路径&gt;" class="cls-1" d="M107.6,793.1l-1.5-1.9Z"/></g><g id="_编组_14" data-name="&lt;编组&gt;"><path id="_路径_12" data-name="&lt;路径&gt;" class="cls-1" d="M110.1,796.4l-1.5-1.9Z"/></g><g id="_编组_15" data-name="&lt;编组&gt;"><path id="_路径_13" data-name="&lt;路径&gt;" class="cls-1" d="M112.6,799.6l-1.5-1.9Z"/></g><g id="_编组_16" data-name="&lt;编组&gt;"><path id="_路径_14" data-name="&lt;路径&gt;" class="cls-1" d="M93.3,772.7l-1.3-2Z"/></g><g id="_编组_17" data-name="&lt;编组&gt;"><path id="_路径_15" data-name="&lt;路径&gt;" class="cls-1" d="M105.1,789.8l-1.4-1.9Z"/></g><g id="_编组_18" data-name="&lt;编组&gt;"><path id="_路径_16" data-name="&lt;路径&gt;" class="cls-1" d="M97.9,779.7l-1.3-2Z"/></g><g id="_编组_19" data-name="&lt;编组&gt;"><path id="_路径_17" data-name="&lt;路径&gt;" class="cls-1" d="M95.6,776.2a13.7,13.7,0,0,1-1.3-2A13.7,13.7,0,0,0,95.6,776.2Z"/></g><g id="_编组_20" data-name="&lt;编组&gt;"><path id="_路径_18" data-name="&lt;路径&gt;" class="cls-1" d="M100.3,783.1l-1.4-1.9Z"/></g><g id="_编组_21" data-name="&lt;编组&gt;"><path id="_路径_19" data-name="&lt;路径&gt;" class="cls-1" d="M102.7,786.5l-1.4-1.9Z"/></g><g id="_编组_22" data-name="&lt;编组&gt;"><path id="_路径_20" data-name="&lt;路径&gt;" class="cls-1" d="M38.4,583.7v0Z"/></g><g id="_编组_23" data-name="&lt;编组&gt;"><path id="_路径_21" data-name="&lt;路径&gt;" class="cls-1" d="M38.4,583.2c.1-2.4.1-4.8.2-7.2C38.5,578.4,38.5,580.8,38.4,583.2Z"/></g><g id="_编组_24" data-name="&lt;编组&gt;"><path id="_路径_22" data-name="&lt;路径&gt;" class="cls-1" d="M78.3,747.2c-1.2-2.2-2.4-4.4-3.5-6.7C75.9,742.8,77.1,745,78.3,747.2Z"/></g><g id="_编组_25" data-name="&lt;编组&gt;"><path id="_路径_23" data-name="&lt;路径&gt;" class="cls-1" d="M78.3,747.2c.6,1.3,1.3,2.5,2,3.8C79.6,749.7,78.9,748.5,78.3,747.2Z"/></g><g id="_编组_26" data-name="&lt;编组&gt;"><path id="_路径_24" data-name="&lt;路径&gt;" class="cls-1" d="M38.6,575.8c.3-7.4.8-14.9,1.6-22.3C39.4,560.9,38.9,568.4,38.6,575.8Z"/></g><g id="_编组_27" data-name="&lt;编组&gt;"><path id="_路径_25" data-name="&lt;路径&gt;" class="cls-1" d="M38.6,598.4c-.1-2.4-.2-4.7-.2-7.1C38.4,593.7,38.5,596,38.6,598.4Z"/></g><g id="_编组_28" data-name="&lt;编组&gt;"><path id="_路径_26" data-name="&lt;路径&gt;" class="cls-1" d="M40,621c-.7-7.4-1.2-14.8-1.4-22.2C38.8,606.2,39.3,613.6,40,621Z"/></g><g id="_编组_29" data-name="&lt;编组&gt;"><path id="_路径_27" data-name="&lt;路径&gt;" class="cls-1" d="M42,538.4c1.5-9.8,3.4-19.6,5.7-29.3C45.4,518.8,43.5,528.6,42,538.4Z"/></g><g id="_编组_30" data-name="&lt;编组&gt;"><path id="_路径_28" data-name="&lt;路径&gt;" class="cls-1" d="M115.2,802.8l-1.5-1.9Z"/></g><g id="_编组_31" data-name="&lt;编组&gt;"><path id="_路径_29" data-name="&lt;路径&gt;" class="cls-1" d="M40.2,553.4c.2-2.4.5-4.8.8-7.2C40.7,548.6,40.4,551,40.2,553.4Z"/></g><g id="_编组_32" data-name="&lt;编组&gt;"><path id="_路径_30" data-name="&lt;路径&gt;" class="cls-1" d="M41,545.8c.3-2.4.7-4.7,1-7.1C41.7,541.1,41.3,543.4,41,545.8Z"/></g><g id="_编组_33" data-name="&lt;编组&gt;"><path id="_路径_31" data-name="&lt;路径&gt;" class="cls-1" d="M47.6,666.1c-1.2-4.8-2.2-9.6-3.1-14.4C45.4,656.5,46.4,661.3,47.6,666.1Z"/></g><g id="_编组_34" data-name="&lt;编组&gt;"><path id="_路径_32" data-name="&lt;路径&gt;" class="cls-1" d="M51.5,681c-.7-2.2-1.3-4.4-1.9-6.7C50.2,676.6,50.8,678.8,51.5,681Z"/></g><g id="_编组_35" data-name="&lt;编组&gt;"><path id="_路径_33" data-name="&lt;路径&gt;" class="cls-1" d="M53.7,688.5c-.7-2.2-1.3-4.4-2-6.6C52.4,684.1,53,686.3,53.7,688.5Z"/></g><g id="_编组_36" data-name="&lt;编组&gt;"><path id="_路径_34" data-name="&lt;路径&gt;" class="cls-1" d="M56.2,696.1c-.8-2.2-1.5-4.4-2.2-6.7C54.7,691.7,55.4,693.9,56.2,696.1Z"/></g><g id="_编组_37" data-name="&lt;编组&gt;"><path id="_路径_35" data-name="&lt;路径&gt;" class="cls-1" d="M40.8,628.4c-.3-2.3-.5-4.7-.7-7C40.3,623.7,40.5,626.1,40.8,628.4Z"/></g><g id="_编组_38" data-name="&lt;编组&gt;"><path id="_路径_36" data-name="&lt;路径&gt;" class="cls-1" d="M49.4,673.5c-.6-2.3-1.2-4.6-1.7-6.8C48.2,668.9,48.8,671.2,49.4,673.5Z"/></g><g id="_编组_39" data-name="&lt;编组&gt;"><path id="_路径_37" data-name="&lt;路径&gt;" class="cls-1" d="M58.8,703.7l-2.4-7Z"/></g><g id="_编组_40" data-name="&lt;编组&gt;"><path id="_路径_38" data-name="&lt;路径&gt;" class="cls-1" d="M43,643.6c-.4-2.2-.7-4.5-1.1-6.8C42.3,639.1,42.6,641.4,43,643.6Z"/></g><g id="_编组_41" data-name="&lt;编组&gt;"><path id="_路径_39" data-name="&lt;路径&gt;" class="cls-1" d="M41.8,636l-.9-6.9Z"/></g><g id="_编组_42" data-name="&lt;编组&gt;"><path id="_路径_40" data-name="&lt;路径&gt;" class="cls-1" d="M44.4,651.4c-.5-2.4-.9-4.7-1.3-7.1C43.5,646.7,43.9,649,44.4,651.4Z"/></g><g id="_编组_43" data-name="&lt;编组&gt;"><path id="_路径_41" data-name="&lt;路径&gt;" class="cls-1" d="M135.2,825.2l1.9,1.9Z"/></g><g id="_编组_44" data-name="&lt;编组&gt;"><path id="_路径_42" data-name="&lt;路径&gt;" class="cls-1" d="M203.2,878.9l-2.9-1.8Z"/></g><g id="_编组_45" data-name="&lt;编组&gt;"><path id="_路径_43" data-name="&lt;路径&gt;" class="cls-1" d="M213.6,884.9l-3.1-1.8Z"/></g><g id="_编组_46" data-name="&lt;编组&gt;"><path id="_路径_44" data-name="&lt;路径&gt;" class="cls-1" d="M199.8,876.9l-2.8-1.8Z"/></g><g id="_编组_47" data-name="&lt;编组&gt;"><path id="_路径_45" data-name="&lt;路径&gt;" class="cls-1" d="M206.7,880.9l-3-1.7Z"/></g><g id="_编组_48" data-name="&lt;编组&gt;"><path id="_路径_46" data-name="&lt;路径&gt;" class="cls-1" d="M210.1,882.9l-3-1.7Z"/></g><g id="_编组_49" data-name="&lt;编组&gt;"><path id="_路径_47" data-name="&lt;路径&gt;" class="cls-1" d="M196.5,874.7l-2.9-1.8Z"/></g><g id="_编组_50" data-name="&lt;编组&gt;"><path id="_路径_48" data-name="&lt;路径&gt;" class="cls-1" d="M183.2,865.9l-2.6-1.8Z"/></g><g id="_编组_51" data-name="&lt;编组&gt;"><path id="_路径_49" data-name="&lt;路径&gt;" class="cls-1" d="M179.9,863.6l-2.5-1.8Z"/></g><g id="_编组_52" data-name="&lt;编组&gt;"><path id="_路径_50" data-name="&lt;路径&gt;" class="cls-1" d="M193.1,872.6l-2.8-1.8Z"/></g><g id="_编组_53" data-name="&lt;编组&gt;"><path id="_路径_51" data-name="&lt;路径&gt;" class="cls-1" d="M189.8,870.4l-2.8-1.8Z"/></g><g id="_编组_54" data-name="&lt;编组&gt;"><path id="_路径_52" data-name="&lt;路径&gt;" class="cls-1" d="M186.5,868.2l-2.7-1.8Z"/></g><g id="_编组_55" data-name="&lt;编组&gt;"><path id="_路径_53" data-name="&lt;路径&gt;" class="cls-1" d="M242,898.9l-3.5-1.6Z"/></g><g id="_编组_56" data-name="&lt;编组&gt;"><path id="_路径_54" data-name="&lt;路径&gt;" class="cls-1" d="M234.8,895.6l-3.4-1.6Z"/></g><g id="_编组_57" data-name="&lt;编组&gt;"><path id="_路径_55" data-name="&lt;路径&gt;" class="cls-1" d="M217.1,886.8l-3.2-1.8Z"/></g><g id="_编组_58" data-name="&lt;编组&gt;"><path id="_路径_56" data-name="&lt;路径&gt;" class="cls-1" d="M245.7,900.5l-3.6-1.6Z"/></g><g id="_编组_59" data-name="&lt;编组&gt;"><path id="_路径_57" data-name="&lt;路径&gt;" class="cls-1" d="M238.4,897.3l-3.4-1.6Z"/></g><g id="_编组_60" data-name="&lt;编组&gt;"><path id="_路径_58" data-name="&lt;路径&gt;" class="cls-1" d="M224.1,890.4l-3.2-1.6Z"/></g><g id="_编组_61" data-name="&lt;编组&gt;"><path id="_路径_59" data-name="&lt;路径&gt;" class="cls-1" d="M220.6,888.6l-3.2-1.7Z"/></g><g id="_编组_62" data-name="&lt;编组&gt;"><path id="_路径_60" data-name="&lt;路径&gt;" class="cls-1" d="M231.2,894l-3.3-1.7Z"/></g><g id="_编组_63" data-name="&lt;编组&gt;"><path id="_路径_61" data-name="&lt;路径&gt;" class="cls-1" d="M227.6,892.2l-3.3-1.6Z"/></g><g id="_编组_64" data-name="&lt;编组&gt;"><path id="_路径_62" data-name="&lt;路径&gt;" class="cls-1" d="M145.8,835.6l-2.1-2Z"/></g><g id="_编组_65" data-name="&lt;编组&gt;"><path id="_路径_63" data-name="&lt;路径&gt;" class="cls-1" d="M134.2,824.2l-1.8-1.9Z"/></g><g id="_编组_66" data-name="&lt;编组&gt;"><path id="_路径_64" data-name="&lt;路径&gt;" class="cls-1" d="M1290.3,431.3h0l-1.2-2.3a4.1,4.1,0,0,0-.5-.9c-.9-1.8-2-3.7-3-5.5l-.5-1-3.2-5.6h-.1C1219.1,308.8,1105.9,248.1,988.9,248c-1.7-3.6-3.5-7.2-5.4-10.7C895.4,71.7,689.7,8.9,524.1,97A338.8,338.8,0,0,0,378.3,248,339.6,339.6,0,0,0,47.7,509.1,325.9,325.9,0,0,0,78.2,734.2C161.7,891,354.4,952.3,512.5,874.1l-.3-.8c4.6-1.9,9.1-4,13.6-6.4A145.7,145.7,0,0,0,586,669.8c-37.8-71-126.1-98-197.1-60.2A145.7,145.7,0,0,0,311.6,737l-24.1-.3A169.8,169.8,0,1,1,537.1,888.2a153,153,0,0,1-14.2,6.7c-90.3,42.7-190.9,42-277.2,5.6,86,36.3,186.3,37.1,276.4-5.2a226.8,226.8,0,0,0,323,.2c93.3,43.5,205.3,44.2,303.2-8a334.3,334.3,0,0,0,87.3-66.4,339.6,339.6,0,0,0,422.2-243.3C1518.8,612.2,1369.6,555.3,1290.3,431.3Z"/></g><g id="_编组_67" data-name="&lt;编组&gt;"><path id="_路径_65" data-name="&lt;路径&gt;" class="cls-1" d="M142.8,832.8l-1.9-1.9Z"/></g><g id="_编组_68" data-name="&lt;编组&gt;"><path id="_路径_66" data-name="&lt;路径&gt;" class="cls-1" d="M131.4,821.3l-1.8-2Z"/></g><g id="_编组_69" data-name="&lt;编组&gt;"><path id="_路径_67" data-name="&lt;路径&gt;" class="cls-1" d="M139.9,830a17,17,0,0,0-1.9-1.9A17,17,0,0,1,139.9,830Z"/></g><g id="_编组_70" data-name="&lt;编组&gt;"><path id="_路径_68" data-name="&lt;路径&gt;" class="cls-1" d="M128.6,818.3l-1.7-1.9Z"/></g><g id="_编组_71" data-name="&lt;编组&gt;"><path id="_路径_69" data-name="&lt;路径&gt;" class="cls-1" d="M120.5,809.1l-1.7-1.9Z"/></g><g id="_编组_72" data-name="&lt;编组&gt;"><path id="_路径_70" data-name="&lt;路径&gt;" class="cls-1" d="M117.8,806c-.5-.6-1-1.3-1.6-1.9S117.3,805.4,117.8,806Z"/></g><g id="_编组_73" data-name="&lt;编组&gt;"><path id="_路径_71" data-name="&lt;路径&gt;" class="cls-1" d="M123.2,812.2l-1.8-2Z"/></g><g id="_编组_74" data-name="&lt;编组&gt;"><path id="_路径_72" data-name="&lt;路径&gt;" class="cls-1" d="M125.9,815.3c-.6-.7-1.2-1.3-1.7-2S125.3,814.6,125.9,815.3Z"/></g><g id="_编组_75" data-name="&lt;编组&gt;"><path id="_路径_73" data-name="&lt;路径&gt;" class="cls-1" d="M157.8,846.3l-2.2-1.9Z"/></g><g id="_编组_76" data-name="&lt;编组&gt;"><path id="_路径_74" data-name="&lt;路径&gt;" class="cls-1" d="M167.1,854l-2.3-1.9Z"/></g><g id="_编组_77" data-name="&lt;编组&gt;"><path id="_路径_75" data-name="&lt;路径&gt;" class="cls-1" d="M170.3,856.4l-2.4-1.8Z"/></g><g id="_编组_78" data-name="&lt;编组&gt;"><path id="_路径_76" data-name="&lt;路径&gt;" class="cls-1" d="M164,851.5l-2.3-1.9Z"/></g><g id="_编组_79" data-name="&lt;编组&gt;"><path id="_路径_77" data-name="&lt;路径&gt;" class="cls-1" d="M173.5,858.9,171,857Z"/></g><g id="_编组_80" data-name="&lt;编组&gt;"><path id="_路径_78" data-name="&lt;路径&gt;" class="cls-1" d="M154.8,843.7l-2.2-1.9Z"/></g><g id="_编组_81" data-name="&lt;编组&gt;"><path id="_路径_79" data-name="&lt;路径&gt;" class="cls-1" d="M160.9,848.9l-2.3-1.9Z"/></g><g id="_编组_82" data-name="&lt;编组&gt;"><path id="_路径_80" data-name="&lt;路径&gt;" class="cls-1" d="M151.7,841l-2.1-1.9Z"/></g><g id="_编组_83" data-name="&lt;编组&gt;"><path id="_路径_81" data-name="&lt;路径&gt;" class="cls-1" d="M148.7,838.3l-2-1.9Z"/></g><g id="_编组_84" data-name="&lt;编组&gt;"><path id="_路径_82" data-name="&lt;路径&gt;" class="cls-1" d="M176.7,861.3l-2.6-1.9Z"/></g></g><path id="_复合路径_7" data-name="&lt;复合路径&gt;" class="cls-1" d="M4070.5,458.8c0,11.8-3.5,22-10.3,30.6s-16.5,12.8-29,12.8H3705.7V433.1h261c4.6,0,9.4-1.6,14.5-5s7.6-8.4,7.6-15.2a18.4,18.4,0,0,0-3.2-10.4,22.6,22.6,0,0,0-9.7-7.8,33,33,0,0,0-14.1-3H3764.3a46,46,0,0,1-25.2-7.1,54.3,54.3,0,0,1-17-16.7q-6-9.6-6-15.6V261c0-7.8,4.3-16.5,13-26s19.9-14.2,33.7-14.2h292.3v66.7H3813.8a14,14,0,0,0-12,6.3,22.4,22.4,0,0,0-4.5,13.2c0,4.1,2.1,8.6,6.2,13.3s10,7.1,17.6,7.1h198c17.5,0,30.4,4.5,38.8,13.5s12.6,20.9,12.6,35.5Z"/><path id="_复合路径_8" data-name="&lt;复合路径&gt;" class="cls-2" d="M2086.2,862.4H1855.9a75.6,75.6,0,0,1-44-13.7,102.2,102.2,0,0,1-31.4-33.5c-7.6-13.3-11.4-25.9-11.4-37.9V660.2c0-12.1,4.7-24.2,14.3-36.3a123.4,123.4,0,0,1,34.2-29.8c13.2-7.7,24.5-11.6,33.8-11.6h228.8v64H1876.6a28.9,28.9,0,0,0-14.3,3.8,35,35,0,0,0-11.2,10.1,23,23,0,0,0-4.4,13.3v16.4l1.6,63.2v22.4c0,5.5,3.2,10.3,9.7,14.5s12.6,6.2,18.6,6.2h209.6Z"/><path id="_复合路径_9" data-name="&lt;复合路径&gt;" class="cls-2" d="M2515.2,862.4H2204c-12.6,0-24.9-4.4-36.7-13.4a117.5,117.5,0,0,1-29.3-31.3c-7.7-12-11.5-21.5-11.5-28.5V581.5H2206V741.6a40.5,40.5,0,0,0,7.7,24.6,52.4,52.4,0,0,0,18.1,15.9c7,3.5,12.8,5.3,17.3,5.3h266.1Z"/><path id="_复合路径_10" data-name="&lt;复合路径&gt;" class="cls-2" d="M2885.4,777.3a87.2,87.2,0,0,1-10.8,42.8c-7.2,13-16,23.3-26.3,30.9s-19.5,11.4-27.5,11.4H2641.5a60.7,60.7,0,0,1-39.2-13.8A93,93,0,0,1,2576,814c-6.1-13.8-9.1-27-9.1-39.6v-105a87.1,87.1,0,0,1,6.2-32.9,99.8,99.8,0,0,1,16.5-27.8,86.8,86.8,0,0,1,22.4-19.2c8.1-4.7,15.8-7,23.2-7h176.5c8,0,17.7,3.1,29.3,9.4s21.9,16.4,30.9,30.4,13.5,32.2,13.5,54.3Zm-67-26.3V693.5c0-12.1-3.4-22.3-10.2-30.8s-17.7-12.7-32.4-12.7H2672.5c-4.1,0-9,1.9-14.9,5.5a54.2,54.2,0,0,0-15.5,14.4,31.8,31.8,0,0,0-6.6,19.1v54.8c.2,13.1,3.2,24.2,8.9,33.1s14.2,13.5,25.5,13.5h115c9.3,0,17.2-3,23.7-9.1S2818.4,765.2,2818.4,751Z"/><path id="_复合路径_11" data-name="&lt;复合路径&gt;" class="cls-2" d="M3283.6,786.1c0,9.5-3.6,20.3-10.9,32.4a113.4,113.4,0,0,1-27.5,31c-11.1,8.6-22.1,12.9-32.9,12.9H3017a75.7,75.7,0,0,1-43.7-13.8,100.8,100.8,0,0,1-31.8-35.1c-7.7-14.1-11.6-27.8-11.6-41.1V582.5h78.4V751.7a36.8,36.8,0,0,0,6.7,21.2,52.3,52.3,0,0,0,15.6,15.2c6,3.7,11.3,5.6,16,5.6h119.9c5.1,0,10.4-2.2,16-6.5a60.1,60.1,0,0,0,14-15.7c3.7-6,5.6-11.2,5.6-15.5V582.5h81.5Z"/><path id="_复合路径_12" data-name="&lt;复合路径&gt;" class="cls-2" d="M3675.3,787.7c0,13-4.7,25.2-14,36.6a111.2,111.2,0,0,1-33.4,27.7c-12.9,6.9-23.9,10.4-33.1,10.4h-275V690.1h80.8V793.7H3548c15.8,0,27.5-4.4,35.2-13.2s11.6-19.8,11.6-33.3V690.4a44.7,44.7,0,0,0-5.9-21.9,38.4,38.4,0,0,0-16.6-14.9c-7.4-3.7-16.4-5.5-27-5.5H3318V582.5h272.1a74.5,74.5,0,0,1,43.6,13.7c13.1,9.1,23.3,20,30.6,32.9s11,24.2,11,34.2Z"/></svg>